<mxfile host="app.diagrams.net" modified="2021-03-30T05:24:59.053Z" agent="5.0 (Windows NT 6.1; Win64; x64) AppleWebKit/537.36 (KHTML, like Gecko) Chrome/87.0.4280.88 Safari/537.36" etag="waI2QoC7sVTRAUcWp6Nn" version="14.4.4" type="github">
  <diagram id="59pcz8J8tjLlCu2dW7JG" name="Page-1">
    <mxGraphModel dx="868" dy="450" grid="1" gridSize="10" guides="1" tooltips="1" connect="1" arrows="1" fold="1" page="1" pageScale="1" pageWidth="827" pageHeight="1169" math="0" shadow="0">
      <root>
        <mxCell id="0" />
        <mxCell id="1" parent="0" />
        <mxCell id="vlPhWGIlwNCeZ7o7SoZ--9" style="edgeStyle=orthogonalEdgeStyle;rounded=0;orthogonalLoop=1;jettySize=auto;html=1;exitX=0.5;exitY=1;exitDx=0;exitDy=0;entryX=0.5;entryY=0;entryDx=0;entryDy=0;" edge="1" parent="1" source="vlPhWGIlwNCeZ7o7SoZ--1" target="vlPhWGIlwNCeZ7o7SoZ--2">
          <mxGeometry relative="1" as="geometry" />
        </mxCell>
        <mxCell id="vlPhWGIlwNCeZ7o7SoZ--1" value="&lt;font style=&quot;font-size: 24px&quot;&gt;开始&lt;/font&gt;" style="rounded=1;whiteSpace=wrap;html=1;fillColor=#dae8fc;strokeColor=#6c8ebf;" vertex="1" parent="1">
          <mxGeometry x="320" y="30" width="120" height="60" as="geometry" />
        </mxCell>
        <mxCell id="vlPhWGIlwNCeZ7o7SoZ--10" style="edgeStyle=orthogonalEdgeStyle;rounded=0;orthogonalLoop=1;jettySize=auto;html=1;exitX=0.5;exitY=1;exitDx=0;exitDy=0;entryX=0.5;entryY=0;entryDx=0;entryDy=0;" edge="1" parent="1" source="vlPhWGIlwNCeZ7o7SoZ--2" target="vlPhWGIlwNCeZ7o7SoZ--3">
          <mxGeometry relative="1" as="geometry" />
        </mxCell>
        <mxCell id="vlPhWGIlwNCeZ7o7SoZ--2" value="&lt;font style=&quot;font-size: 24px&quot;&gt;随机生成初始化种群&lt;/font&gt;" style="rounded=0;whiteSpace=wrap;html=1;fillColor=#dae8fc;strokeColor=#6c8ebf;" vertex="1" parent="1">
          <mxGeometry x="265" y="130" width="230" height="60" as="geometry" />
        </mxCell>
        <mxCell id="vlPhWGIlwNCeZ7o7SoZ--11" style="edgeStyle=orthogonalEdgeStyle;rounded=0;orthogonalLoop=1;jettySize=auto;html=1;exitX=0.5;exitY=1;exitDx=0;exitDy=0;entryX=0.5;entryY=0;entryDx=0;entryDy=0;" edge="1" parent="1" source="vlPhWGIlwNCeZ7o7SoZ--3" target="vlPhWGIlwNCeZ7o7SoZ--4">
          <mxGeometry relative="1" as="geometry" />
        </mxCell>
        <mxCell id="vlPhWGIlwNCeZ7o7SoZ--12" style="edgeStyle=orthogonalEdgeStyle;rounded=0;orthogonalLoop=1;jettySize=auto;html=1;exitX=0.5;exitY=1;exitDx=0;exitDy=0;entryX=0.5;entryY=0;entryDx=0;entryDy=0;" edge="1" parent="1" source="vlPhWGIlwNCeZ7o7SoZ--3" target="vlPhWGIlwNCeZ7o7SoZ--5">
          <mxGeometry relative="1" as="geometry" />
        </mxCell>
        <mxCell id="vlPhWGIlwNCeZ7o7SoZ--3" value="&lt;span style=&quot;font-size: 24px&quot;&gt;计算父代个体&lt;br&gt;适应度函数值&lt;/span&gt;" style="rounded=0;whiteSpace=wrap;html=1;fillColor=#dae8fc;strokeColor=#6c8ebf;" vertex="1" parent="1">
          <mxGeometry x="265" y="230" width="230" height="60" as="geometry" />
        </mxCell>
        <mxCell id="vlPhWGIlwNCeZ7o7SoZ--17" style="edgeStyle=orthogonalEdgeStyle;rounded=0;orthogonalLoop=1;jettySize=auto;html=1;exitX=0.5;exitY=1;exitDx=0;exitDy=0;entryX=0.5;entryY=0;entryDx=0;entryDy=0;" edge="1" parent="1" source="vlPhWGIlwNCeZ7o7SoZ--4" target="vlPhWGIlwNCeZ7o7SoZ--8">
          <mxGeometry relative="1" as="geometry">
            <Array as="points">
              <mxPoint x="500" y="680" />
              <mxPoint x="375" y="680" />
            </Array>
          </mxGeometry>
        </mxCell>
        <mxCell id="vlPhWGIlwNCeZ7o7SoZ--4" value="&lt;font style=&quot;font-size: 24px&quot;&gt;复制操作&lt;/font&gt;" style="rounded=0;whiteSpace=wrap;html=1;fillColor=#dae8fc;strokeColor=#6c8ebf;" vertex="1" parent="1">
          <mxGeometry x="430" y="370" width="120" height="60" as="geometry" />
        </mxCell>
        <mxCell id="vlPhWGIlwNCeZ7o7SoZ--13" style="edgeStyle=orthogonalEdgeStyle;rounded=0;orthogonalLoop=1;jettySize=auto;html=1;exitX=0.5;exitY=1;exitDx=0;exitDy=0;entryX=0.5;entryY=0;entryDx=0;entryDy=0;" edge="1" parent="1" source="vlPhWGIlwNCeZ7o7SoZ--5" target="vlPhWGIlwNCeZ7o7SoZ--6">
          <mxGeometry relative="1" as="geometry" />
        </mxCell>
        <mxCell id="vlPhWGIlwNCeZ7o7SoZ--5" value="&lt;font style=&quot;font-size: 24px&quot;&gt;选择操作&lt;/font&gt;" style="rounded=0;whiteSpace=wrap;html=1;fillColor=#dae8fc;strokeColor=#6c8ebf;" vertex="1" parent="1">
          <mxGeometry x="210" y="370" width="120" height="60" as="geometry" />
        </mxCell>
        <mxCell id="vlPhWGIlwNCeZ7o7SoZ--14" style="edgeStyle=orthogonalEdgeStyle;rounded=0;orthogonalLoop=1;jettySize=auto;html=1;exitX=0.5;exitY=1;exitDx=0;exitDy=0;entryX=0.5;entryY=0;entryDx=0;entryDy=0;" edge="1" parent="1" source="vlPhWGIlwNCeZ7o7SoZ--6" target="vlPhWGIlwNCeZ7o7SoZ--7">
          <mxGeometry relative="1" as="geometry" />
        </mxCell>
        <mxCell id="vlPhWGIlwNCeZ7o7SoZ--6" value="&lt;font style=&quot;font-size: 24px&quot;&gt;交叉操作&lt;/font&gt;" style="rounded=0;whiteSpace=wrap;html=1;fillColor=#dae8fc;strokeColor=#6c8ebf;" vertex="1" parent="1">
          <mxGeometry x="210" y="470" width="120" height="60" as="geometry" />
        </mxCell>
        <mxCell id="vlPhWGIlwNCeZ7o7SoZ--16" style="edgeStyle=orthogonalEdgeStyle;rounded=0;orthogonalLoop=1;jettySize=auto;html=1;exitX=0.5;exitY=1;exitDx=0;exitDy=0;entryX=0.5;entryY=0;entryDx=0;entryDy=0;" edge="1" parent="1" source="vlPhWGIlwNCeZ7o7SoZ--7" target="vlPhWGIlwNCeZ7o7SoZ--8">
          <mxGeometry relative="1" as="geometry" />
        </mxCell>
        <mxCell id="vlPhWGIlwNCeZ7o7SoZ--7" value="&lt;font style=&quot;font-size: 24px&quot;&gt;变异操作&lt;/font&gt;" style="rounded=0;whiteSpace=wrap;html=1;fillColor=#dae8fc;strokeColor=#6c8ebf;" vertex="1" parent="1">
          <mxGeometry x="210" y="580" width="120" height="60" as="geometry" />
        </mxCell>
        <mxCell id="vlPhWGIlwNCeZ7o7SoZ--20" style="edgeStyle=orthogonalEdgeStyle;rounded=0;orthogonalLoop=1;jettySize=auto;html=1;exitX=0;exitY=0.5;exitDx=0;exitDy=0;entryX=0.5;entryY=1;entryDx=0;entryDy=0;" edge="1" parent="1" source="vlPhWGIlwNCeZ7o7SoZ--8" target="vlPhWGIlwNCeZ7o7SoZ--18">
          <mxGeometry relative="1" as="geometry" />
        </mxCell>
        <mxCell id="vlPhWGIlwNCeZ7o7SoZ--24" style="edgeStyle=orthogonalEdgeStyle;rounded=0;orthogonalLoop=1;jettySize=auto;html=1;exitX=0.5;exitY=1;exitDx=0;exitDy=0;" edge="1" parent="1" source="vlPhWGIlwNCeZ7o7SoZ--8" target="vlPhWGIlwNCeZ7o7SoZ--23">
          <mxGeometry relative="1" as="geometry" />
        </mxCell>
        <mxCell id="vlPhWGIlwNCeZ7o7SoZ--8" value="&lt;font style=&quot;font-size: 24px&quot;&gt;满足终止条件&lt;/font&gt;" style="rhombus;whiteSpace=wrap;html=1;fillColor=#dae8fc;strokeColor=#6c8ebf;" vertex="1" parent="1">
          <mxGeometry x="260" y="720" width="230" height="80" as="geometry" />
        </mxCell>
        <mxCell id="vlPhWGIlwNCeZ7o7SoZ--19" style="edgeStyle=orthogonalEdgeStyle;rounded=0;orthogonalLoop=1;jettySize=auto;html=1;exitX=0.5;exitY=0;exitDx=0;exitDy=0;" edge="1" parent="1" source="vlPhWGIlwNCeZ7o7SoZ--18">
          <mxGeometry relative="1" as="geometry">
            <mxPoint x="380" y="210" as="targetPoint" />
            <Array as="points">
              <mxPoint x="110" y="210" />
            </Array>
          </mxGeometry>
        </mxCell>
        <mxCell id="vlPhWGIlwNCeZ7o7SoZ--18" value="&lt;font style=&quot;font-size: 20px&quot;&gt;Gen=Gen+1&lt;/font&gt;" style="rounded=0;whiteSpace=wrap;html=1;fillColor=#dae8fc;strokeColor=#6c8ebf;fontSize=20;" vertex="1" parent="1">
          <mxGeometry x="50" y="525" width="120" height="60" as="geometry" />
        </mxCell>
        <mxCell id="vlPhWGIlwNCeZ7o7SoZ--22" value="&lt;font style=&quot;font-size: 24px&quot;&gt;否&lt;/font&gt;" style="text;html=1;align=center;verticalAlign=middle;resizable=0;points=[];autosize=1;" vertex="1" parent="1">
          <mxGeometry x="110" y="730" width="40" height="20" as="geometry" />
        </mxCell>
        <mxCell id="vlPhWGIlwNCeZ7o7SoZ--27" style="edgeStyle=orthogonalEdgeStyle;rounded=0;orthogonalLoop=1;jettySize=auto;html=1;exitX=0.5;exitY=1;exitDx=0;exitDy=0;entryX=0.5;entryY=0;entryDx=0;entryDy=0;" edge="1" parent="1" source="vlPhWGIlwNCeZ7o7SoZ--23" target="vlPhWGIlwNCeZ7o7SoZ--26">
          <mxGeometry relative="1" as="geometry" />
        </mxCell>
        <mxCell id="vlPhWGIlwNCeZ7o7SoZ--23" value="&lt;span style=&quot;font-size: 24px&quot;&gt;输出结果&lt;/span&gt;" style="rounded=0;whiteSpace=wrap;html=1;fillColor=#dae8fc;strokeColor=#6c8ebf;" vertex="1" parent="1">
          <mxGeometry x="260" y="860" width="230" height="60" as="geometry" />
        </mxCell>
        <mxCell id="vlPhWGIlwNCeZ7o7SoZ--25" value="&lt;font style=&quot;font-size: 24px&quot;&gt;是&lt;/font&gt;" style="text;html=1;strokeColor=none;fillColor=none;align=center;verticalAlign=middle;whiteSpace=wrap;rounded=0;" vertex="1" parent="1">
          <mxGeometry x="380" y="820" width="40" height="20" as="geometry" />
        </mxCell>
        <mxCell id="vlPhWGIlwNCeZ7o7SoZ--30" style="edgeStyle=orthogonalEdgeStyle;rounded=0;orthogonalLoop=1;jettySize=auto;html=1;exitX=0.5;exitY=1;exitDx=0;exitDy=0;entryX=0.5;entryY=0;entryDx=0;entryDy=0;" edge="1" parent="1" source="vlPhWGIlwNCeZ7o7SoZ--26" target="vlPhWGIlwNCeZ7o7SoZ--29">
          <mxGeometry relative="1" as="geometry" />
        </mxCell>
        <mxCell id="vlPhWGIlwNCeZ7o7SoZ--26" value="&lt;span style=&quot;font-size: 24px&quot;&gt;选择最优解&lt;/span&gt;" style="rounded=0;whiteSpace=wrap;html=1;fillColor=#dae8fc;strokeColor=#6c8ebf;" vertex="1" parent="1">
          <mxGeometry x="260" y="970" width="230" height="60" as="geometry" />
        </mxCell>
        <mxCell id="vlPhWGIlwNCeZ7o7SoZ--29" value="&lt;font style=&quot;font-size: 24px&quot;&gt;结束&lt;/font&gt;" style="rounded=1;whiteSpace=wrap;html=1;fillColor=#dae8fc;strokeColor=#6c8ebf;" vertex="1" parent="1">
          <mxGeometry x="315" y="1080" width="120" height="60" as="geometry" />
        </mxCell>
      </root>
    </mxGraphModel>
  </diagram>
</mxfile>
